<svg width="1600" height="1000" viewBox="0 0 1600 1000" fill="none" xmlns="http://www.w3.org/2000/svg">
  <defs>
    <linearGradient id="bg" x1="0" y1="0" x2="1600" y2="1000" gradientUnits="userSpaceOnUse">
      <stop stop-color="#0F172A"/>
      <stop offset="1" stop-color="#1E293B"/>
    </linearGradient>
    <linearGradient id="card" x1="0" y1="0" x2="1" y2="1">
      <stop stop-color="#1D4ED8"/>
      <stop offset="1" stop-color="#2563EB"/>
    </linearGradient>
    <linearGradient id="accent" x1="0" y1="0" x2="1" y2="1">
      <stop stop-color="#22C55E"/>
      <stop offset="1" stop-color="#16A34A"/>
    </linearGradient>
    <filter id="shadow" x="-20%" y="-20%" width="140%" height="140%">
      <feDropShadow dx="0" dy="16" stdDeviation="18" flood-color="#020617" flood-opacity="0.35"/>
    </filter>
  </defs>

  <rect width="1600" height="1000" fill="url(#bg)"/>
  <circle cx="1420" cy="120" r="220" fill="#2563EB" fill-opacity="0.18"/>
  <circle cx="170" cy="860" r="260" fill="#22C55E" fill-opacity="0.14"/>

  <g filter="url(#shadow)">
    <rect x="120" y="120" width="980" height="760" rx="28" fill="#FFFFFF" fill-opacity="0.98"/>
  </g>

  <rect x="160" y="170" width="420" height="36" rx="10" fill="#0F172A"/>
  <rect x="160" y="230" width="300" height="20" rx="8" fill="#64748B" fill-opacity="0.65"/>

  <g>
    <rect x="160" y="290" width="620" height="330" rx="22" fill="#F8FAFC" stroke="#E2E8F0"/>
    <text x="190" y="350" font-family="Inter, Arial, sans-serif" font-size="34" font-weight="800" fill="#0F172A">Novo Sorteio</text>

    <rect x="190" y="390" width="180" height="84" rx="14" fill="#EEF2FF"/>
    <text x="208" y="426" font-family="Inter, Arial, sans-serif" font-size="20" font-weight="700" fill="#1E3A8A">Tipo</text>
    <text x="208" y="454" font-family="Inter, Arial, sans-serif" font-size="18" fill="#1D4ED8">Bingo</text>

    <rect x="390" y="390" width="180" height="84" rx="14" fill="#EFF6FF"/>
    <text x="408" y="426" font-family="Inter, Arial, sans-serif" font-size="20" font-weight="700" fill="#1E3A8A">Faixa</text>
    <text x="408" y="454" font-family="Inter, Arial, sans-serif" font-size="18" fill="#1D4ED8">1 a 75</text>

    <rect x="590" y="390" width="160" height="84" rx="14" fill="#ECFEF2"/>
    <text x="608" y="426" font-family="Inter, Arial, sans-serif" font-size="20" font-weight="700" fill="#166534">Cartelas</text>
    <text x="608" y="454" font-family="Inter, Arial, sans-serif" font-size="18" fill="#16A34A">10.000</text>

    <rect x="190" y="500" width="560" height="86" rx="14" fill="url(#card)"/>
    <text x="218" y="552" font-family="Inter, Arial, sans-serif" font-size="30" font-weight="800" fill="#FFFFFF">Criar Rodada e Iniciar Sorteio</text>
  </g>

  <g filter="url(#shadow)">
    <rect x="830" y="260" width="640" height="540" rx="26" fill="#0B1220"/>
  </g>
  <text x="870" y="320" font-family="Inter, Arial, sans-serif" font-size="38" font-weight="800" fill="#E2E8F0">Transmissão ao Vivo</text>

  <rect x="870" y="350" width="380" height="260" rx="20" fill="#111827" stroke="#334155"/>
  <text x="900" y="410" font-family="Inter, Arial, sans-serif" font-size="28" font-weight="700" fill="#94A3B8">Número Sorteado</text>
  <text x="980" y="540" font-family="Inter, Arial, sans-serif" font-size="140" font-weight="900" fill="#3B82F6">75</text>

  <rect x="1270" y="350" width="170" height="420" rx="20" fill="#111827" stroke="#334155"/>
  <text x="1290" y="390" font-family="Inter, Arial, sans-serif" font-size="20" font-weight="700" fill="#E2E8F0">Top 10</text>
  <text x="1290" y="430" font-family="Inter, Arial, sans-serif" font-size="18" fill="#60A5FA">6 pts • 12</text>
  <text x="1290" y="468" font-family="Inter, Arial, sans-serif" font-size="18" fill="#60A5FA">5 pts • 21</text>
  <text x="1290" y="506" font-family="Inter, Arial, sans-serif" font-size="18" fill="#60A5FA">4 pts • 39</text>
  <text x="1290" y="544" font-family="Inter, Arial, sans-serif" font-size="18" fill="#60A5FA">3 pts • 84</text>

  <rect x="870" y="640" width="380" height="130" rx="16" fill="#111827" stroke="#334155"/>
  <text x="900" y="684" font-family="Inter, Arial, sans-serif" font-size="22" font-weight="700" fill="#E2E8F0">Automação • Ranking • Relatórios</text>
  <text x="900" y="720" font-family="Inter, Arial, sans-serif" font-size="18" fill="#94A3B8">Tudo para vender mais sorteios e rifas</text>

  <circle cx="1440" cy="120" r="18" fill="#22C55E"/>
  <text x="1468" y="127" font-family="Inter, Arial, sans-serif" font-size="20" font-weight="700" fill="#86EFAC">ONLINE</text>
</svg>
